<svg width="32" height="32" viewBox="0 0 32 32" fill="none" xmlns="http://www.w3.org/2000/svg">
<path fill-rule="evenodd" clip-rule="evenodd" d="M12.2876 16.6699L12.9818 16L12.2876 15.3301C11.9041 15.7001 11.9041 16.2999 12.2876 16.6699ZM14.3703 16L18.9124 11.6173C19.2959 11.2473 19.2959 10.6474 18.9124 10.2775C18.529 9.90751 17.9074 9.90751 17.5239 10.2775L12.2876 15.3301L12.9818 16L12.2876 16.6699L17.5239 21.7225C17.9074 22.0925 18.529 22.0925 18.9124 21.7225C19.2959 21.3526 19.2959 20.7527 18.9124 20.3827L14.3703 16Z" fill="#C7C9D9"/>
<path fill-rule="evenodd" clip-rule="evenodd" d="M5.28757 16.6699L5.98182 16L5.28757 15.3301C4.90414 15.7001 4.90414 16.2999 5.28757 16.6699ZM7.37032 16L11.9124 11.6173C12.2959 11.2473 12.2959 10.6474 11.9124 10.2775C11.529 9.90751 10.9074 9.90751 10.5239 10.2775L5.28757 15.3301L5.98182 16L5.28757 16.6699L10.5239 21.7225C10.9074 22.0925 11.529 22.0925 11.9124 21.7225C12.2959 21.3526 12.2959 20.7527 11.9124 20.3827L7.37032 16Z" fill="#C7C9D9"/>
</svg>
